<?xml version="1.0" encoding="utf-8" standalone="no"?>
<!DOCTYPE svg PUBLIC "-//W3C//DTD SVG 1.1//EN"
  "http://www.w3.org/Graphics/SVG/1.1/DTD/svg11.dtd">
<!-- Created with matplotlib (https://matplotlib.org/) -->
<svg height="720pt" version="1.1" viewBox="0 0 1080 720" width="1080pt" xmlns="http://www.w3.org/2000/svg" xmlns:xlink="http://www.w3.org/1999/xlink">
 <defs>
  <style type="text/css">
*{stroke-linecap:butt;stroke-linejoin:round;}
  </style>
 </defs>
 <g id="figure_1">
  <g id="patch_1">
   <path d="M 0 720 
L 1080 720 
L 1080 0 
L 0 0 
z
" style="fill:#ffffff;"/>
  </g>
  <g id="axes_1">
   <g id="patch_2">
    <path d="M 129.6 633.6 
L 993.6 633.6 
L 993.6 79.2 
L 129.6 79.2 
z
" style="fill:#ffffff;"/>
   </g>
   <g id="matplotlib.axis_1">
    <g id="xtick_1">
     <g id="line2d_1">
      <defs>
       <path d="M 0 0 
L 0 3.5 
" id="m5a073b6ac9" style="stroke:#000000;stroke-width:2;"/>
      </defs>
      <g>
       <use style="stroke:#000000;stroke-width:2;" x="129.6" xlink:href="#m5a073b6ac9" y="633.6"/>
      </g>
     </g>
     <g id="text_1">
      <!-- 0 -->
      <defs>
       <path d="M 31.78125 66.40625 
Q 24.171875 66.40625 20.328125 58.90625 
Q 16.5 51.421875 16.5 36.375 
Q 16.5 21.390625 20.328125 13.890625 
Q 24.171875 6.390625 31.78125 6.390625 
Q 39.453125 6.390625 43.28125 13.890625 
Q 47.125 21.390625 47.125 36.375 
Q 47.125 51.421875 43.28125 58.90625 
Q 39.453125 66.40625 31.78125 66.40625 
z
M 31.78125 74.21875 
Q 44.046875 74.21875 50.515625 64.515625 
Q 56.984375 54.828125 56.984375 36.375 
Q 56.984375 17.96875 50.515625 8.265625 
Q 44.046875 -1.421875 31.78125 -1.421875 
Q 19.53125 -1.421875 13.0625 8.265625 
Q 6.59375 17.96875 6.59375 36.375 
Q 6.59375 54.828125 13.0625 64.515625 
Q 19.53125 74.21875 31.78125 74.21875 
z
" id="DejaVuSans-48"/>
      </defs>
      <g transform="translate(120.05625 663.395313)scale(0.3 -0.3)">
       <use xlink:href="#DejaVuSans-48"/>
      </g>
     </g>
    </g>
    <g id="xtick_2">
     <g id="line2d_2">
      <g>
       <use style="stroke:#000000;stroke-width:2;" x="345.6" xlink:href="#m5a073b6ac9" y="633.6"/>
      </g>
     </g>
     <g id="text_2">
      <!-- 60 -->
      <defs>
       <path d="M 33.015625 40.375 
Q 26.375 40.375 22.484375 35.828125 
Q 18.609375 31.296875 18.609375 23.390625 
Q 18.609375 15.53125 22.484375 10.953125 
Q 26.375 6.390625 33.015625 6.390625 
Q 39.65625 6.390625 43.53125 10.953125 
Q 47.40625 15.53125 47.40625 23.390625 
Q 47.40625 31.296875 43.53125 35.828125 
Q 39.65625 40.375 33.015625 40.375 
z
M 52.59375 71.296875 
L 52.59375 62.3125 
Q 48.875 64.0625 45.09375 64.984375 
Q 41.3125 65.921875 37.59375 65.921875 
Q 27.828125 65.921875 22.671875 59.328125 
Q 17.53125 52.734375 16.796875 39.40625 
Q 19.671875 43.65625 24.015625 45.921875 
Q 28.375 48.1875 33.59375 48.1875 
Q 44.578125 48.1875 50.953125 41.515625 
Q 57.328125 34.859375 57.328125 23.390625 
Q 57.328125 12.15625 50.6875 5.359375 
Q 44.046875 -1.421875 33.015625 -1.421875 
Q 20.359375 -1.421875 13.671875 8.265625 
Q 6.984375 17.96875 6.984375 36.375 
Q 6.984375 53.65625 15.1875 63.9375 
Q 23.390625 74.21875 37.203125 74.21875 
Q 40.921875 74.21875 44.703125 73.484375 
Q 48.484375 72.75 52.59375 71.296875 
z
" id="DejaVuSans-54"/>
      </defs>
      <g transform="translate(326.5125 663.395313)scale(0.3 -0.3)">
       <use xlink:href="#DejaVuSans-54"/>
       <use x="63.623047" xlink:href="#DejaVuSans-48"/>
      </g>
     </g>
    </g>
    <g id="xtick_3">
     <g id="line2d_3">
      <g>
       <use style="stroke:#000000;stroke-width:2;" x="561.6" xlink:href="#m5a073b6ac9" y="633.6"/>
      </g>
     </g>
     <g id="text_3">
      <!-- 120 -->
      <defs>
       <path d="M 12.40625 8.296875 
L 28.515625 8.296875 
L 28.515625 63.921875 
L 10.984375 60.40625 
L 10.984375 69.390625 
L 28.421875 72.90625 
L 38.28125 72.90625 
L 38.28125 8.296875 
L 54.390625 8.296875 
L 54.390625 0 
L 12.40625 0 
z
" id="DejaVuSans-49"/>
       <path d="M 19.1875 8.296875 
L 53.609375 8.296875 
L 53.609375 0 
L 7.328125 0 
L 7.328125 8.296875 
Q 12.9375 14.109375 22.625 23.890625 
Q 32.328125 33.6875 34.8125 36.53125 
Q 39.546875 41.84375 41.421875 45.53125 
Q 43.3125 49.21875 43.3125 52.78125 
Q 43.3125 58.59375 39.234375 62.25 
Q 35.15625 65.921875 28.609375 65.921875 
Q 23.96875 65.921875 18.8125 64.3125 
Q 13.671875 62.703125 7.8125 59.421875 
L 7.8125 69.390625 
Q 13.765625 71.78125 18.9375 73 
Q 24.125 74.21875 28.421875 74.21875 
Q 39.75 74.21875 46.484375 68.546875 
Q 53.21875 62.890625 53.21875 53.421875 
Q 53.21875 48.921875 51.53125 44.890625 
Q 49.859375 40.875 45.40625 35.40625 
Q 44.1875 33.984375 37.640625 27.21875 
Q 31.109375 20.453125 19.1875 8.296875 
z
" id="DejaVuSans-50"/>
      </defs>
      <g transform="translate(532.96875 663.395313)scale(0.3 -0.3)">
       <use xlink:href="#DejaVuSans-49"/>
       <use x="63.623047" xlink:href="#DejaVuSans-50"/>
       <use x="127.246094" xlink:href="#DejaVuSans-48"/>
      </g>
     </g>
    </g>
    <g id="xtick_4">
     <g id="line2d_4">
      <g>
       <use style="stroke:#000000;stroke-width:2;" x="777.6" xlink:href="#m5a073b6ac9" y="633.6"/>
      </g>
     </g>
     <g id="text_4">
      <!-- 180 -->
      <defs>
       <path d="M 31.78125 34.625 
Q 24.75 34.625 20.71875 30.859375 
Q 16.703125 27.09375 16.703125 20.515625 
Q 16.703125 13.921875 20.71875 10.15625 
Q 24.75 6.390625 31.78125 6.390625 
Q 38.8125 6.390625 42.859375 10.171875 
Q 46.921875 13.96875 46.921875 20.515625 
Q 46.921875 27.09375 42.890625 30.859375 
Q 38.875 34.625 31.78125 34.625 
z
M 21.921875 38.8125 
Q 15.578125 40.375 12.03125 44.71875 
Q 8.5 49.078125 8.5 55.328125 
Q 8.5 64.0625 14.71875 69.140625 
Q 20.953125 74.21875 31.78125 74.21875 
Q 42.671875 74.21875 48.875 69.140625 
Q 55.078125 64.0625 55.078125 55.328125 
Q 55.078125 49.078125 51.53125 44.71875 
Q 48 40.375 41.703125 38.8125 
Q 48.828125 37.15625 52.796875 32.3125 
Q 56.78125 27.484375 56.78125 20.515625 
Q 56.78125 9.90625 50.3125 4.234375 
Q 43.84375 -1.421875 31.78125 -1.421875 
Q 19.734375 -1.421875 13.25 4.234375 
Q 6.78125 9.90625 6.78125 20.515625 
Q 6.78125 27.484375 10.78125 32.3125 
Q 14.796875 37.15625 21.921875 38.8125 
z
M 18.3125 54.390625 
Q 18.3125 48.734375 21.84375 45.5625 
Q 25.390625 42.390625 31.78125 42.390625 
Q 38.140625 42.390625 41.71875 45.5625 
Q 45.3125 48.734375 45.3125 54.390625 
Q 45.3125 60.0625 41.71875 63.234375 
Q 38.140625 66.40625 31.78125 66.40625 
Q 25.390625 66.40625 21.84375 63.234375 
Q 18.3125 60.0625 18.3125 54.390625 
z
" id="DejaVuSans-56"/>
      </defs>
      <g transform="translate(748.96875 663.395313)scale(0.3 -0.3)">
       <use xlink:href="#DejaVuSans-49"/>
       <use x="63.623047" xlink:href="#DejaVuSans-56"/>
       <use x="127.246094" xlink:href="#DejaVuSans-48"/>
      </g>
     </g>
    </g>
    <g id="xtick_5">
     <g id="line2d_5">
      <g>
       <use style="stroke:#000000;stroke-width:2;" x="993.6" xlink:href="#m5a073b6ac9" y="633.6"/>
      </g>
     </g>
     <g id="text_5">
      <!-- 240 -->
      <defs>
       <path d="M 37.796875 64.3125 
L 12.890625 25.390625 
L 37.796875 25.390625 
z
M 35.203125 72.90625 
L 47.609375 72.90625 
L 47.609375 25.390625 
L 58.015625 25.390625 
L 58.015625 17.1875 
L 47.609375 17.1875 
L 47.609375 0 
L 37.796875 0 
L 37.796875 17.1875 
L 4.890625 17.1875 
L 4.890625 26.703125 
z
" id="DejaVuSans-52"/>
      </defs>
      <g transform="translate(964.96875 663.395313)scale(0.3 -0.3)">
       <use xlink:href="#DejaVuSans-50"/>
       <use x="63.623047" xlink:href="#DejaVuSans-52"/>
       <use x="127.246094" xlink:href="#DejaVuSans-48"/>
      </g>
     </g>
    </g>
    <g id="text_6">
     <!-- Number of Single Base Substitutions -->
     <defs>
      <path d="M 24.90625 66.21875 
L 57.5625 25.140625 
L 57.5625 53.609375 
Q 57.5625 59.578125 55.859375 61.671875 
Q 53.515625 64.5 48 64.40625 
L 48 66.21875 
L 69.875 66.21875 
L 69.875 64.40625 
Q 65.671875 63.875 64.234375 63.015625 
Q 62.796875 62.15625 61.984375 60.21875 
Q 61.1875 58.296875 61.1875 53.609375 
L 61.1875 -1.515625 
L 59.515625 -1.515625 
L 14.75 53.609375 
L 14.75 11.53125 
Q 14.75 5.8125 17.359375 3.8125 
Q 19.96875 1.8125 23.34375 1.8125 
L 24.90625 1.8125 
L 24.90625 0 
L 1.421875 0 
L 1.421875 1.8125 
Q 6.890625 1.859375 9.03125 4.046875 
Q 11.1875 6.25 11.1875 11.53125 
L 11.1875 58.25 
L 9.765625 60.015625 
Q 7.671875 62.640625 6.046875 63.46875 
Q 4.4375 64.3125 1.421875 64.40625 
L 1.421875 66.21875 
z
" id="TimesNewRomanPS-BoldMT-78"/>
      <path d="M 47.46875 45.65625 
L 47.46875 9.90625 
Q 47.46875 4.6875 48.4375 3.390625 
Q 49.421875 2.09375 52.390625 1.765625 
L 52.390625 0 
L 33.796875 0 
L 33.796875 6.109375 
Q 30.515625 2.203125 27.234375 0.40625 
Q 23.96875 -1.375 19.921875 -1.375 
Q 16.0625 -1.375 13.0625 1 
Q 10.0625 3.375 9.03125 6.546875 
Q 8.015625 9.71875 8.015625 17.625 
L 8.015625 35.75 
Q 8.015625 40.921875 7.0625 42.1875 
Q 6.109375 43.453125 3.078125 43.84375 
L 3.078125 45.65625 
L 21.6875 45.65625 
L 21.6875 14.453125 
Q 21.6875 9.578125 22.140625 8.15625 
Q 22.609375 6.734375 23.609375 6 
Q 24.609375 5.28125 25.921875 5.28125 
Q 27.6875 5.28125 29.109375 6.203125 
Q 31.0625 7.46875 33.796875 11.328125 
L 33.796875 35.75 
Q 33.796875 40.921875 32.84375 42.1875 
Q 31.890625 43.453125 28.859375 43.84375 
L 28.859375 45.65625 
z
" id="TimesNewRomanPS-BoldMT-117"/>
      <path d="M 22.3125 45.65625 
L 22.3125 39.65625 
Q 26.078125 43.75 29.265625 45.375 
Q 32.46875 47.015625 36.28125 47.015625 
Q 40.671875 47.015625 43.640625 44.96875 
Q 46.625 42.921875 48.25 38.71875 
Q 52.15625 43.109375 55.734375 45.0625 
Q 59.328125 47.015625 63.234375 47.015625 
Q 67.96875 47.015625 70.765625 44.84375 
Q 73.578125 42.671875 74.671875 39.328125 
Q 75.78125 35.984375 75.78125 28.65625 
L 75.78125 9.96875 
Q 75.78125 4.6875 76.734375 3.421875 
Q 77.6875 2.15625 80.71875 1.765625 
L 80.71875 0 
L 57.125 0 
L 57.125 1.765625 
Q 59.90625 2 61.234375 3.90625 
Q 62.109375 5.21875 62.109375 9.96875 
L 62.109375 29.59375 
Q 62.109375 35.6875 61.625 37.34375 
Q 61.140625 39.015625 60.078125 39.8125 
Q 59.03125 40.625 57.625 40.625 
Q 55.515625 40.625 53.359375 39.078125 
Q 51.21875 37.546875 49.03125 34.46875 
L 49.03125 9.96875 
Q 49.03125 5.03125 49.859375 3.765625 
Q 50.984375 1.953125 54.15625 1.765625 
L 54.15625 0 
L 30.515625 0 
L 30.515625 1.765625 
Q 32.421875 1.859375 33.515625 2.703125 
Q 34.625 3.5625 34.984375 4.75 
Q 35.359375 5.953125 35.359375 9.96875 
L 35.359375 29.59375 
Q 35.359375 35.796875 34.859375 37.359375 
Q 34.375 38.921875 33.21875 39.796875 
Q 32.078125 40.671875 30.765625 40.671875 
Q 28.8125 40.671875 27.203125 39.65625 
Q 24.90625 38.140625 22.3125 34.46875 
L 22.3125 9.96875 
Q 22.3125 5.125 23.265625 3.578125 
Q 24.21875 2.046875 27.25 1.765625 
L 27.25 0 
L 3.71875 0 
L 3.71875 1.765625 
Q 6.59375 2.046875 7.8125 3.609375 
Q 8.640625 4.6875 8.640625 9.96875 
L 8.640625 35.75 
Q 8.640625 40.921875 7.6875 42.1875 
Q 6.734375 43.453125 3.71875 43.84375 
L 3.71875 45.65625 
z
" id="TimesNewRomanPS-BoldMT-109"/>
      <path d="M 21.046875 66.21875 
L 21.046875 41.0625 
Q 26.8125 47.015625 33.640625 47.015625 
Q 38.328125 47.015625 42.46875 44.25 
Q 46.625 41.5 48.96875 36.421875 
Q 51.3125 31.34375 51.3125 24.703125 
Q 51.3125 17.234375 48.328125 11.125 
Q 45.359375 5.03125 40.375 1.828125 
Q 35.40625 -1.375 29 -1.375 
Q 25.296875 -1.375 22.40625 -0.1875 
Q 19.53125 0.984375 16.75 3.609375 
L 9.1875 -1.3125 
L 7.515625 -1.3125 
L 7.515625 56.734375 
Q 7.515625 60.6875 7.171875 61.625 
Q 6.6875 62.984375 5.640625 63.640625 
Q 4.59375 64.3125 2.09375 64.40625 
L 2.09375 66.21875 
z
M 21.046875 36.71875 
L 21.046875 16.40625 
Q 21.046875 10.203125 21.34375 8.5 
Q 21.828125 5.609375 23.671875 3.828125 
Q 25.53125 2.046875 28.421875 2.046875 
Q 30.90625 2.046875 32.6875 3.46875 
Q 34.46875 4.890625 35.65625 9.078125 
Q 36.859375 13.28125 36.859375 24.21875 
Q 36.859375 34.71875 34.234375 38.625 
Q 32.328125 41.453125 29.109375 41.453125 
Q 24.90625 41.453125 21.046875 36.71875 
z
" id="TimesNewRomanPS-BoldMT-98"/>
      <path d="M 42.046875 24.46875 
L 17 24.46875 
Q 17.4375 15.375 21.828125 10.109375 
Q 25.203125 6.0625 29.9375 6.0625 
Q 32.859375 6.0625 35.25 7.6875 
Q 37.640625 9.328125 40.375 13.578125 
L 42.046875 12.5 
Q 38.328125 4.9375 33.828125 1.78125 
Q 29.34375 -1.375 23.4375 -1.375 
Q 13.28125 -1.375 8.0625 6.453125 
Q 3.859375 12.75 3.859375 22.078125 
Q 3.859375 33.5 10.03125 40.25 
Q 16.21875 47.015625 24.515625 47.015625 
Q 31.453125 47.015625 36.546875 41.328125 
Q 41.65625 35.640625 42.046875 24.46875 
z
M 30.03125 27.734375 
Q 30.03125 35.59375 29.171875 38.515625 
Q 28.328125 41.453125 26.515625 42.96875 
Q 25.484375 43.84375 23.78125 43.84375 
Q 21.234375 43.84375 19.625 41.359375 
Q 16.75 37.015625 16.75 29.4375 
L 16.75 27.734375 
z
" id="TimesNewRomanPS-BoldMT-101"/>
      <path d="M 22.3125 45.65625 
L 22.3125 35.296875 
Q 26.859375 42.390625 30.265625 44.703125 
Q 33.6875 47.015625 36.859375 47.015625 
Q 39.59375 47.015625 41.234375 45.328125 
Q 42.875 43.65625 42.875 40.578125 
Q 42.875 37.3125 41.28125 35.5 
Q 39.703125 33.6875 37.453125 33.6875 
Q 34.859375 33.6875 32.953125 35.34375 
Q 31.0625 37.015625 30.71875 37.203125 
Q 30.21875 37.5 29.59375 37.5 
Q 28.171875 37.5 26.90625 36.421875 
Q 24.90625 34.765625 23.875 31.6875 
Q 22.3125 26.953125 22.3125 21.234375 
L 22.3125 10.75 
L 22.359375 8.015625 
Q 22.359375 5.21875 22.703125 4.4375 
Q 23.296875 3.125 24.4375 2.515625 
Q 25.59375 1.90625 28.328125 1.765625 
L 28.328125 0 
L 3.65625 0 
L 3.65625 1.765625 
Q 6.640625 2 7.6875 3.390625 
Q 8.734375 4.78125 8.734375 10.75 
L 8.734375 35.984375 
Q 8.734375 39.890625 8.34375 40.96875 
Q 7.859375 42.328125 6.921875 42.96875 
Q 6 43.609375 3.65625 43.84375 
L 3.65625 45.65625 
z
" id="TimesNewRomanPS-BoldMT-114"/>
      <path id="TimesNewRomanPS-BoldMT-32"/>
      <path d="M 24.90625 47.015625 
Q 30.859375 47.015625 35.984375 43.9375 
Q 41.109375 40.875 43.765625 35.203125 
Q 46.4375 29.546875 46.4375 22.796875 
Q 46.4375 13.09375 41.5 6.546875 
Q 35.546875 -1.375 25.046875 -1.375 
Q 14.75 -1.375 9.171875 5.859375 
Q 3.609375 13.09375 3.609375 22.609375 
Q 3.609375 32.421875 9.296875 39.71875 
Q 14.984375 47.015625 24.90625 47.015625 
z
M 25.09375 43.5625 
Q 22.609375 43.5625 20.828125 41.671875 
Q 19.046875 39.796875 18.484375 34.25 
Q 17.921875 28.71875 17.921875 18.84375 
Q 17.921875 13.625 18.609375 9.078125 
Q 19.140625 5.609375 20.890625 3.796875 
Q 22.65625 2 24.90625 2 
Q 27.09375 2 28.5625 3.21875 
Q 30.46875 4.890625 31.109375 7.859375 
Q 32.078125 12.5 32.078125 26.609375 
Q 32.078125 34.90625 31.140625 38 
Q 30.21875 41.109375 28.421875 42.53125 
Q 27.15625 43.5625 25.09375 43.5625 
z
" id="TimesNewRomanPS-BoldMT-111"/>
      <path d="M 23.390625 40.875 
L 23.390625 9.1875 
Q 23.390625 4.59375 24.359375 3.421875 
Q 25.921875 1.609375 30.125 1.765625 
L 30.125 0 
L 3.21875 0 
L 3.21875 1.765625 
Q 6.296875 1.8125 7.59375 2.46875 
Q 8.890625 3.125 9.375 4.296875 
Q 9.859375 5.46875 9.859375 9.1875 
L 9.859375 40.875 
L 3.21875 40.875 
L 3.21875 45.65625 
L 9.859375 45.65625 
L 9.859375 49.03125 
L 9.8125 51.3125 
Q 9.8125 58.34375 14.96875 63.03125 
Q 20.125 67.71875 28.90625 67.71875 
Q 34.90625 67.71875 37.8125 65.46875 
Q 40.71875 63.234375 40.71875 60.5 
Q 40.71875 58.296875 38.90625 56.6875 
Q 37.109375 55.078125 34.125 55.078125 
Q 31.59375 55.078125 30.09375 56.390625 
Q 28.609375 57.71875 28.609375 59.328125 
Q 28.609375 59.765625 28.90625 61.140625 
Q 29.109375 61.96875 29.109375 62.703125 
Q 29.109375 63.71875 28.515625 64.203125 
Q 27.734375 64.9375 26.609375 64.9375 
Q 25.203125 64.9375 24.25 63.765625 
Q 23.296875 62.59375 23.296875 60.015625 
L 23.390625 51.46875 
L 23.390625 45.65625 
L 30.125 45.65625 
L 30.125 40.875 
z
" id="TimesNewRomanPS-BoldMT-102"/>
      <path d="M 46.96875 67.71875 
L 47.515625 45.65625 
L 45.515625 45.65625 
Q 44.09375 53.953125 38.546875 59 
Q 33.015625 64.0625 26.5625 64.0625 
Q 21.578125 64.0625 18.671875 61.390625 
Q 15.765625 58.734375 15.765625 55.28125 
Q 15.765625 53.078125 16.796875 51.375 
Q 18.21875 49.078125 21.34375 46.828125 
Q 23.640625 45.21875 31.9375 41.109375 
Q 43.5625 35.40625 47.609375 30.328125 
Q 51.609375 25.25 51.609375 18.703125 
Q 51.609375 10.40625 45.140625 4.421875 
Q 38.671875 -1.5625 28.71875 -1.5625 
Q 25.59375 -1.5625 22.796875 -0.921875 
Q 20.015625 -0.296875 15.828125 1.46875 
Q 13.484375 2.4375 11.96875 2.4375 
Q 10.6875 2.4375 9.265625 1.453125 
Q 7.859375 0.484375 6.984375 -1.515625 
L 5.171875 -1.515625 
L 5.171875 23.484375 
L 6.984375 23.484375 
Q 9.125 12.9375 15.25 7.390625 
Q 21.390625 1.859375 28.46875 1.859375 
Q 33.9375 1.859375 37.1875 4.828125 
Q 40.4375 7.8125 40.4375 11.765625 
Q 40.4375 14.109375 39.1875 16.296875 
Q 37.9375 18.5 35.390625 20.484375 
Q 32.859375 22.46875 26.421875 25.640625 
Q 17.390625 30.078125 13.421875 33.203125 
Q 9.46875 36.328125 7.34375 40.1875 
Q 5.21875 44.046875 5.21875 48.6875 
Q 5.21875 56.59375 11.03125 62.15625 
Q 16.84375 67.71875 25.6875 67.71875 
Q 28.90625 67.71875 31.9375 66.9375 
Q 34.234375 66.359375 37.53125 64.765625 
Q 40.828125 63.1875 42.140625 63.1875 
Q 43.40625 63.1875 44.140625 63.96875 
Q 44.875 64.75 45.515625 67.71875 
z
" id="TimesNewRomanPS-BoldMT-83"/>
      <path d="M 14.359375 67.78125 
Q 17.53125 67.78125 19.71875 65.546875 
Q 21.921875 63.328125 21.921875 60.203125 
Q 21.921875 57.078125 19.703125 54.875 
Q 17.484375 52.6875 14.359375 52.6875 
Q 11.234375 52.6875 9.03125 54.875 
Q 6.84375 57.078125 6.84375 60.203125 
Q 6.84375 63.328125 9.03125 65.546875 
Q 11.234375 67.78125 14.359375 67.78125 
z
M 21.1875 45.65625 
L 21.1875 9.46875 
Q 21.1875 4.640625 22.3125 3.296875 
Q 23.4375 1.953125 26.703125 1.765625 
L 26.703125 0 
L 2.046875 0 
L 2.046875 1.765625 
Q 5.078125 1.859375 6.546875 3.515625 
Q 7.515625 4.640625 7.515625 9.46875 
L 7.515625 36.140625 
Q 7.515625 40.96875 6.390625 42.3125 
Q 5.28125 43.65625 2.046875 43.84375 
L 2.046875 45.65625 
z
" id="TimesNewRomanPS-BoldMT-105"/>
      <path d="M 22.015625 45.65625 
L 22.015625 39.75 
Q 25.53125 43.5625 28.75 45.28125 
Q 31.984375 47.015625 35.6875 47.015625 
Q 40.140625 47.015625 43.0625 44.546875 
Q 46 42.09375 46.96875 38.421875 
Q 47.75 35.640625 47.75 27.734375 
L 47.75 9.96875 
Q 47.75 4.6875 48.703125 3.390625 
Q 49.65625 2.09375 52.6875 1.765625 
L 52.6875 0 
L 29.59375 0 
L 29.59375 1.765625 
Q 32.171875 2.09375 33.296875 3.90625 
Q 34.078125 5.125 34.078125 9.96875 
L 34.078125 30.28125 
Q 34.078125 35.890625 33.640625 37.34375 
Q 33.203125 38.8125 32.15625 39.625 
Q 31.109375 40.4375 29.828125 40.4375 
Q 25.640625 40.4375 22.015625 34.421875 
L 22.015625 9.96875 
Q 22.015625 4.828125 22.96875 3.453125 
Q 23.921875 2.09375 26.515625 1.765625 
L 26.515625 0 
L 3.421875 0 
L 3.421875 1.765625 
Q 6.296875 2.046875 7.515625 3.609375 
Q 8.34375 4.6875 8.34375 9.96875 
L 8.34375 35.75 
Q 8.34375 40.921875 7.390625 42.1875 
Q 6.453125 43.453125 3.421875 43.84375 
L 3.421875 45.65625 
z
" id="TimesNewRomanPS-BoldMT-110"/>
      <path d="M 32.671875 45.125 
L 48.046875 45.125 
L 48.046875 39.75 
L 39.3125 39.75 
Q 41.703125 37.359375 42.625 35.40625 
Q 43.796875 32.765625 43.796875 29.890625 
Q 43.796875 25 41.078125 21.40625 
Q 38.375 17.828125 33.703125 15.796875 
Q 29.046875 13.765625 25.4375 13.765625 
Q 25.140625 13.765625 19.578125 14.015625 
Q 17.390625 14.015625 15.890625 12.578125 
Q 14.40625 11.140625 14.40625 9.125 
Q 14.40625 7.375 15.75 6.25 
Q 17.09375 5.125 20.125 5.125 
L 28.5625 5.21875 
Q 38.8125 5.21875 42.671875 2.984375 
Q 48.1875 -0.140625 48.1875 -6.640625 
Q 48.1875 -10.796875 45.640625 -14.1875 
Q 43.109375 -17.578125 38.96875 -19.1875 
Q 32.671875 -21.578125 24.46875 -21.578125 
Q 18.3125 -21.578125 13.234375 -20.375 
Q 8.15625 -19.1875 5.953125 -17.0625 
Q 3.765625 -14.9375 3.765625 -12.59375 
Q 3.765625 -10.359375 5.4375 -8.5625 
Q 7.125 -6.78125 11.71875 -5.5625 
Q 5.375 -2.4375 5.375 3.125 
Q 5.375 6.5 7.953125 9.671875 
Q 10.546875 12.84375 16.15625 15.1875 
Q 9.625 17.578125 6.6875 21.484375 
Q 3.765625 25.390625 3.765625 30.515625 
Q 3.765625 37.203125 9.234375 42.109375 
Q 14.703125 47.015625 23.296875 47.015625 
Q 27.828125 47.015625 32.671875 45.125 
z
M 24.21875 44 
Q 21.390625 44 19.4375 41.140625 
Q 17.484375 38.28125 17.484375 29.296875 
Q 17.484375 22.015625 19.40625 19.3125 
Q 21.34375 16.609375 23.96875 16.609375 
Q 26.90625 16.609375 28.859375 19.28125 
Q 30.8125 21.96875 30.8125 29.734375 
Q 30.8125 38.484375 28.609375 41.65625 
Q 27.046875 44 24.21875 44 
z
M 21.34375 -6.734375 
Q 16.359375 -6.734375 14.75 -7.5625 
Q 11.96875 -9.078125 11.96875 -11.671875 
Q 11.96875 -14.15625 14.84375 -16.1875 
Q 17.71875 -18.21875 25.6875 -18.21875 
Q 32.46875 -18.21875 36.34375 -16.40625 
Q 40.234375 -14.59375 40.234375 -11.328125 
Q 40.234375 -10.109375 39.5 -9.28125 
Q 38.1875 -7.8125 35.515625 -7.265625 
Q 32.859375 -6.734375 21.34375 -6.734375 
z
" id="TimesNewRomanPS-BoldMT-103"/>
      <path d="M 21.234375 66.21875 
L 21.234375 9.46875 
Q 21.234375 4.640625 22.359375 3.296875 
Q 23.484375 1.953125 26.765625 1.765625 
L 26.765625 0 
L 2.09375 0 
L 2.09375 1.765625 
Q 5.125 1.859375 6.59375 3.515625 
Q 7.5625 4.640625 7.5625 9.46875 
L 7.5625 56.734375 
Q 7.5625 61.53125 6.4375 62.859375 
Q 5.328125 64.203125 2.09375 64.40625 
L 2.09375 66.21875 
z
" id="TimesNewRomanPS-BoldMT-108"/>
      <path d="M 44.484375 35.109375 
Q 53.90625 32.90625 57.71875 29.78125 
Q 63.1875 25.34375 63.1875 18.265625 
Q 63.1875 10.796875 57.171875 5.90625 
Q 49.8125 0 35.75 0 
L 2.09375 0 
L 2.09375 1.8125 
Q 6.6875 1.8125 8.328125 2.65625 
Q 9.96875 3.515625 10.625 4.875 
Q 11.28125 6.25 11.28125 11.625 
L 11.28125 54.59375 
Q 11.28125 59.96875 10.625 61.359375 
Q 9.96875 62.75 8.296875 63.578125 
Q 6.640625 64.40625 2.09375 64.40625 
L 2.09375 66.21875 
L 33.84375 66.21875 
Q 45.21875 66.21875 49.953125 64.1875 
Q 54.6875 62.15625 57.421875 58.125 
Q 60.15625 54.109375 60.15625 49.5625 
Q 60.15625 44.78125 56.6875 41.046875 
Q 53.21875 37.3125 44.484375 35.109375 
z
M 26.703125 36.421875 
Q 33.640625 36.421875 36.9375 37.984375 
Q 40.234375 39.546875 41.984375 42.375 
Q 43.75 45.21875 43.75 49.609375 
Q 43.75 54 42.015625 56.8125 
Q 40.28125 59.625 37.0625 61.078125 
Q 33.84375 62.546875 26.703125 62.5 
z
M 26.703125 32.625 
L 26.703125 11.375 
L 26.65625 8.9375 
Q 26.65625 6.296875 28 4.953125 
Q 29.34375 3.609375 31.984375 3.609375 
Q 35.890625 3.609375 39.1875 5.34375 
Q 42.484375 7.078125 44.234375 10.375 
Q 46 13.671875 46 17.71875 
Q 46 22.359375 43.84375 26.046875 
Q 41.703125 29.734375 37.9375 31.203125 
Q 34.1875 32.671875 26.703125 32.625 
z
" id="TimesNewRomanPS-BoldMT-66"/>
      <path d="M 28.5625 6.734375 
Q 20.21875 -0.640625 13.578125 -0.640625 
Q 9.671875 -0.640625 7.078125 1.921875 
Q 4.5 4.5 4.5 8.34375 
Q 4.5 13.578125 8.984375 17.75 
Q 13.484375 21.921875 28.5625 28.859375 
L 28.5625 33.453125 
Q 28.5625 38.625 28 39.96875 
Q 27.4375 41.3125 25.875 42.3125 
Q 24.3125 43.3125 22.359375 43.3125 
Q 19.1875 43.3125 17.140625 41.890625 
Q 15.875 41.015625 15.875 39.84375 
Q 15.875 38.8125 17.234375 37.3125 
Q 19.09375 35.203125 19.09375 33.25 
Q 19.09375 30.859375 17.3125 29.171875 
Q 15.53125 27.484375 12.640625 27.484375 
Q 9.578125 27.484375 7.5 29.34375 
Q 5.421875 31.203125 5.421875 33.6875 
Q 5.421875 37.203125 8.203125 40.40625 
Q 10.984375 43.609375 15.96875 45.3125 
Q 20.953125 47.015625 26.3125 47.015625 
Q 32.8125 47.015625 36.59375 44.25 
Q 40.375 41.5 41.5 38.28125 
Q 42.1875 36.234375 42.1875 28.859375 
L 42.1875 11.140625 
Q 42.1875 8.015625 42.421875 7.203125 
Q 42.671875 6.390625 43.15625 6 
Q 43.65625 5.609375 44.28125 5.609375 
Q 45.5625 5.609375 46.875 7.421875 
L 48.34375 6.25 
Q 45.90625 2.640625 43.28125 1 
Q 40.671875 -0.640625 37.359375 -0.640625 
Q 33.453125 -0.640625 31.25 1.1875 
Q 29.046875 3.03125 28.5625 6.734375 
z
M 28.5625 10.296875 
L 28.5625 25.59375 
Q 22.65625 22.125 19.78125 18.171875 
Q 17.875 15.53125 17.875 12.84375 
Q 17.875 10.59375 19.484375 8.890625 
Q 20.703125 7.5625 22.90625 7.5625 
Q 25.34375 7.5625 28.5625 10.296875 
z
" id="TimesNewRomanPS-BoldMT-97"/>
      <path d="M 32.234375 46.921875 
L 32.953125 31.34375 
L 31.296875 31.34375 
Q 28.328125 38.28125 25.125 40.8125 
Q 21.921875 43.359375 18.75 43.359375 
Q 16.75 43.359375 15.328125 42.015625 
Q 13.921875 40.671875 13.921875 38.921875 
Q 13.921875 37.59375 14.890625 36.375 
Q 16.453125 34.375 23.625 29.515625 
Q 30.8125 24.65625 33.078125 21.265625 
Q 35.359375 17.875 35.359375 13.671875 
Q 35.359375 9.859375 33.453125 6.203125 
Q 31.546875 2.546875 28.078125 0.578125 
Q 24.609375 -1.375 20.40625 -1.375 
Q 17.140625 -1.375 11.671875 0.6875 
Q 10.203125 1.21875 9.671875 1.21875 
Q 8.0625 1.21875 6.984375 -1.21875 
L 5.375 -1.21875 
L 4.59375 15.1875 
L 6.25 15.1875 
Q 8.453125 8.734375 12.28125 5.515625 
Q 16.109375 2.296875 19.53125 2.296875 
Q 21.875 2.296875 23.359375 3.734375 
Q 24.859375 5.171875 24.859375 7.234375 
Q 24.859375 9.578125 23.390625 11.28125 
Q 21.921875 12.984375 16.84375 16.453125 
Q 9.375 21.625 7.171875 24.359375 
Q 3.953125 28.375 3.953125 33.203125 
Q 3.953125 38.484375 7.59375 42.75 
Q 11.234375 47.015625 18.109375 47.015625 
Q 21.828125 47.015625 25.296875 45.21875 
Q 26.609375 44.484375 27.4375 44.484375 
Q 28.328125 44.484375 28.859375 44.84375 
Q 29.390625 45.21875 30.5625 46.921875 
z
" id="TimesNewRomanPS-BoldMT-115"/>
      <path d="M 21.484375 62.359375 
L 21.484375 45.65625 
L 32.328125 45.65625 
L 32.328125 40.828125 
L 21.484375 40.828125 
L 21.484375 12.640625 
Q 21.484375 8.6875 21.84375 7.53125 
Q 22.21875 6.390625 23.140625 5.6875 
Q 24.078125 4.984375 24.859375 4.984375 
Q 28.03125 4.984375 30.859375 9.8125 
L 32.328125 8.734375 
Q 28.375 -0.640625 19.484375 -0.640625 
Q 15.140625 -0.640625 12.125 1.78125 
Q 9.125 4.203125 8.296875 7.171875 
Q 7.8125 8.84375 7.8125 16.15625 
L 7.8125 40.828125 
L 1.859375 40.828125 
L 1.859375 42.53125 
Q 8.015625 46.875 12.328125 51.65625 
Q 16.65625 56.453125 19.875 62.359375 
z
" id="TimesNewRomanPS-BoldMT-116"/>
     </defs>
     <g transform="translate(288.671094 697.357813)scale(0.35 -0.35)">
      <use xlink:href="#TimesNewRomanPS-BoldMT-78"/>
      <use x="72.216797" xlink:href="#TimesNewRomanPS-BoldMT-117"/>
      <use x="127.832031" xlink:href="#TimesNewRomanPS-BoldMT-109"/>
      <use x="211.132812" xlink:href="#TimesNewRomanPS-BoldMT-98"/>
      <use x="266.748047" xlink:href="#TimesNewRomanPS-BoldMT-101"/>
      <use x="311.132812" xlink:href="#TimesNewRomanPS-BoldMT-114"/>
      <use x="353.767578" xlink:href="#TimesNewRomanPS-BoldMT-32"/>
      <use x="378.767578" xlink:href="#TimesNewRomanPS-BoldMT-111"/>
      <use x="428.767578" xlink:href="#TimesNewRomanPS-BoldMT-102"/>
      <use x="462.068359" xlink:href="#TimesNewRomanPS-BoldMT-32"/>
      <use x="487.068359" xlink:href="#TimesNewRomanPS-BoldMT-83"/>
      <use x="542.683594" xlink:href="#TimesNewRomanPS-BoldMT-105"/>
      <use x="570.466797" xlink:href="#TimesNewRomanPS-BoldMT-110"/>
      <use x="626.082031" xlink:href="#TimesNewRomanPS-BoldMT-103"/>
      <use x="676.082031" xlink:href="#TimesNewRomanPS-BoldMT-108"/>
      <use x="703.865234" xlink:href="#TimesNewRomanPS-BoldMT-101"/>
      <use x="748.25" xlink:href="#TimesNewRomanPS-BoldMT-32"/>
      <use x="773.25" xlink:href="#TimesNewRomanPS-BoldMT-66"/>
      <use x="839.949219" xlink:href="#TimesNewRomanPS-BoldMT-97"/>
      <use x="889.949219" xlink:href="#TimesNewRomanPS-BoldMT-115"/>
      <use x="928.865234" xlink:href="#TimesNewRomanPS-BoldMT-101"/>
      <use x="973.25" xlink:href="#TimesNewRomanPS-BoldMT-32"/>
      <use x="998.25" xlink:href="#TimesNewRomanPS-BoldMT-83"/>
      <use x="1053.865234" xlink:href="#TimesNewRomanPS-BoldMT-117"/>
      <use x="1109.480469" xlink:href="#TimesNewRomanPS-BoldMT-98"/>
      <use x="1165.095703" xlink:href="#TimesNewRomanPS-BoldMT-115"/>
      <use x="1204.011719" xlink:href="#TimesNewRomanPS-BoldMT-116"/>
      <use x="1237.3125" xlink:href="#TimesNewRomanPS-BoldMT-105"/>
      <use x="1265.095703" xlink:href="#TimesNewRomanPS-BoldMT-116"/>
      <use x="1298.396484" xlink:href="#TimesNewRomanPS-BoldMT-117"/>
      <use x="1354.011719" xlink:href="#TimesNewRomanPS-BoldMT-116"/>
      <use x="1387.3125" xlink:href="#TimesNewRomanPS-BoldMT-105"/>
      <use x="1415.095703" xlink:href="#TimesNewRomanPS-BoldMT-111"/>
      <use x="1465.095703" xlink:href="#TimesNewRomanPS-BoldMT-110"/>
      <use x="1520.710938" xlink:href="#TimesNewRomanPS-BoldMT-115"/>
     </g>
    </g>
   </g>
   <g id="matplotlib.axis_2">
    <g id="ytick_1">
     <g id="text_7">
      <!-- T&gt;G -->
      <defs>
       <path d="M -0.296875 72.90625 
L 61.375 72.90625 
L 61.375 64.59375 
L 35.5 64.59375 
L 35.5 0 
L 25.59375 0 
L 25.59375 64.59375 
L -0.296875 64.59375 
z
" id="DejaVuSans-84"/>
       <path d="M 10.59375 49.21875 
L 10.59375 58.109375 
L 73.1875 35.40625 
L 73.1875 27.296875 
L 10.59375 4.59375 
L 10.59375 13.484375 
L 60.890625 31.296875 
z
" id="DejaVuSans-62"/>
       <path d="M 59.515625 10.40625 
L 59.515625 29.984375 
L 43.40625 29.984375 
L 43.40625 38.09375 
L 69.28125 38.09375 
L 69.28125 6.78125 
Q 63.578125 2.734375 56.6875 0.65625 
Q 49.8125 -1.421875 42 -1.421875 
Q 24.90625 -1.421875 15.25 8.5625 
Q 5.609375 18.5625 5.609375 36.375 
Q 5.609375 54.25 15.25 64.234375 
Q 24.90625 74.21875 42 74.21875 
Q 49.125 74.21875 55.546875 72.453125 
Q 61.96875 70.703125 67.390625 67.28125 
L 67.390625 56.78125 
Q 61.921875 61.421875 55.765625 63.765625 
Q 49.609375 66.109375 42.828125 66.109375 
Q 29.4375 66.109375 22.71875 58.640625 
Q 16.015625 51.171875 16.015625 36.375 
Q 16.015625 21.625 22.71875 14.15625 
Q 29.4375 6.6875 42.828125 6.6875 
Q 48.046875 6.6875 52.140625 7.59375 
Q 56.25 8.5 59.515625 10.40625 
z
" id="DejaVuSans-71"/>
      </defs>
      <g transform="translate(55.892187 603.468319)scale(0.3 -0.3)">
       <use xlink:href="#DejaVuSans-84"/>
       <use x="61.083984" xlink:href="#DejaVuSans-62"/>
       <use x="144.873047" xlink:href="#DejaVuSans-71"/>
      </g>
     </g>
    </g>
    <g id="ytick_2">
     <g id="text_8">
      <!-- T&gt;C -->
      <defs>
       <path d="M 64.40625 67.28125 
L 64.40625 56.890625 
Q 59.421875 61.53125 53.78125 63.8125 
Q 48.140625 66.109375 41.796875 66.109375 
Q 29.296875 66.109375 22.65625 58.46875 
Q 16.015625 50.828125 16.015625 36.375 
Q 16.015625 21.96875 22.65625 14.328125 
Q 29.296875 6.6875 41.796875 6.6875 
Q 48.140625 6.6875 53.78125 8.984375 
Q 59.421875 11.28125 64.40625 15.921875 
L 64.40625 5.609375 
Q 59.234375 2.09375 53.4375 0.328125 
Q 47.65625 -1.421875 41.21875 -1.421875 
Q 24.65625 -1.421875 15.125 8.703125 
Q 5.609375 18.84375 5.609375 36.375 
Q 5.609375 53.953125 15.125 64.078125 
Q 24.65625 74.21875 41.21875 74.21875 
Q 47.75 74.21875 53.53125 72.484375 
Q 59.328125 70.75 64.40625 67.28125 
z
" id="DejaVuSans-67"/>
      </defs>
      <g transform="translate(58.189062 510.934144)scale(0.3 -0.3)">
       <use xlink:href="#DejaVuSans-84"/>
       <use x="61.083984" xlink:href="#DejaVuSans-62"/>
       <use x="144.873047" xlink:href="#DejaVuSans-67"/>
      </g>
     </g>
    </g>
    <g id="ytick_3">
     <g id="text_9">
      <!-- T&gt;A -->
      <defs>
       <path d="M 34.1875 63.1875 
L 20.796875 26.90625 
L 47.609375 26.90625 
z
M 28.609375 72.90625 
L 39.796875 72.90625 
L 67.578125 0 
L 57.328125 0 
L 50.6875 18.703125 
L 17.828125 18.703125 
L 11.1875 0 
L 0.78125 0 
z
" id="DejaVuSans-65"/>
      </defs>
      <g transform="translate(58.615625 418.39997)scale(0.3 -0.3)">
       <use xlink:href="#DejaVuSans-84"/>
       <use x="61.083984" xlink:href="#DejaVuSans-62"/>
       <use x="144.873047" xlink:href="#DejaVuSans-65"/>
      </g>
     </g>
    </g>
    <g id="ytick_4">
     <g id="text_10">
      <!-- C&gt;T -->
      <g transform="translate(58.189062 325.865795)scale(0.3 -0.3)">
       <use xlink:href="#DejaVuSans-67"/>
       <use x="69.824219" xlink:href="#DejaVuSans-62"/>
       <use x="153.613281" xlink:href="#DejaVuSans-84"/>
      </g>
     </g>
    </g>
    <g id="ytick_5">
     <g id="text_11">
      <!-- C&gt;G -->
      <g transform="translate(53.267187 233.33162)scale(0.3 -0.3)">
       <use xlink:href="#DejaVuSans-67"/>
       <use x="69.824219" xlink:href="#DejaVuSans-62"/>
       <use x="153.613281" xlink:href="#DejaVuSans-71"/>
      </g>
     </g>
    </g>
    <g id="ytick_6">
     <g id="text_12">
      <!-- C&gt;A -->
      <g transform="translate(55.990625 140.797446)scale(0.3 -0.3)">
       <use xlink:href="#DejaVuSans-67"/>
       <use x="69.824219" xlink:href="#DejaVuSans-62"/>
       <use x="153.613281" xlink:href="#DejaVuSans-65"/>
      </g>
     </g>
    </g>
   </g>
   <g id="patch_3">
    <path d="M 129.6 633.6 
L 129.6 79.2 
" style="fill:none;stroke:#d3d3d3;stroke-linecap:square;stroke-linejoin:miter;stroke-width:2;"/>
   </g>
   <g id="patch_4">
    <path d="M 129.6 633.6 
L 993.6 633.6 
" style="fill:none;stroke:#d3d3d3;stroke-linecap:square;stroke-linejoin:miter;stroke-width:2;"/>
   </g>
   <g id="text_13">
    <!-- False: 1,180 transcribed subs -->
    <defs>
     <path d="M 7.375 0 
L 7.375 71.578125 
L 56.453125 71.578125 
L 56.453125 59.46875 
L 21.828125 59.46875 
L 21.828125 42.53125 
L 51.703125 42.53125 
L 51.703125 30.421875 
L 21.828125 30.421875 
L 21.828125 0 
z
" id="Arial-BoldMT-70"/>
     <path d="M 17.4375 36.03125 
L 4.984375 38.28125 
Q 7.078125 45.796875 12.203125 49.40625 
Q 17.328125 53.03125 27.4375 53.03125 
Q 36.625 53.03125 41.109375 50.859375 
Q 45.609375 48.6875 47.4375 45.34375 
Q 49.265625 42 49.265625 33.0625 
L 49.125 17.046875 
Q 49.125 10.203125 49.78125 6.953125 
Q 50.4375 3.71875 52.25 0 
L 38.671875 0 
Q 38.140625 1.375 37.359375 4.046875 
Q 37.015625 5.28125 36.859375 5.671875 
Q 33.34375 2.25 29.34375 0.53125 
Q 25.34375 -1.171875 20.796875 -1.171875 
Q 12.796875 -1.171875 8.171875 3.171875 
Q 3.5625 7.515625 3.5625 14.15625 
Q 3.5625 18.5625 5.65625 22 
Q 7.765625 25.4375 11.546875 27.265625 
Q 15.328125 29.109375 22.46875 30.46875 
Q 32.078125 32.28125 35.796875 33.84375 
L 35.796875 35.203125 
Q 35.796875 39.15625 33.84375 40.84375 
Q 31.890625 42.53125 26.46875 42.53125 
Q 22.796875 42.53125 20.75 41.09375 
Q 18.703125 39.65625 17.4375 36.03125 
z
M 35.796875 24.90625 
Q 33.15625 24.03125 27.4375 22.796875 
Q 21.734375 21.578125 19.96875 20.40625 
Q 17.28125 18.5 17.28125 15.578125 
Q 17.28125 12.703125 19.421875 10.59375 
Q 21.578125 8.5 24.90625 8.5 
Q 28.609375 8.5 31.984375 10.9375 
Q 34.46875 12.796875 35.25 15.484375 
Q 35.796875 17.234375 35.796875 22.171875 
z
" id="Arial-BoldMT-97"/>
     <path d="M 7.171875 0 
L 7.171875 71.578125 
L 20.90625 71.578125 
L 20.90625 0 
z
" id="Arial-BoldMT-108"/>
     <path d="M 2.34375 14.796875 
L 16.109375 16.890625 
Q 17 12.890625 19.671875 10.8125 
Q 22.359375 8.734375 27.203125 8.734375 
Q 32.515625 8.734375 35.203125 10.6875 
Q 37.015625 12.0625 37.015625 14.359375 
Q 37.015625 15.921875 36.03125 16.9375 
Q 35.015625 17.921875 31.453125 18.75 
Q 14.84375 22.40625 10.40625 25.4375 
Q 4.25 29.640625 4.25 37.109375 
Q 4.25 43.84375 9.5625 48.4375 
Q 14.890625 53.03125 26.078125 53.03125 
Q 36.71875 53.03125 41.890625 49.5625 
Q 47.078125 46.09375 49.03125 39.3125 
L 36.078125 36.921875 
Q 35.25 39.9375 32.921875 41.546875 
Q 30.609375 43.171875 26.3125 43.171875 
Q 20.90625 43.171875 18.5625 41.65625 
Q 17 40.578125 17 38.875 
Q 17 37.40625 18.359375 36.375 
Q 20.21875 35.015625 31.171875 32.515625 
Q 42.140625 30.03125 46.484375 26.421875 
Q 50.78125 22.75 50.78125 16.21875 
Q 50.78125 9.078125 44.828125 3.953125 
Q 38.875 -1.171875 27.203125 -1.171875 
Q 16.609375 -1.171875 10.421875 3.125 
Q 4.25 7.421875 2.34375 14.796875 
z
" id="Arial-BoldMT-115"/>
     <path d="M 37.203125 16.5 
L 50.875 14.203125 
Q 48.25 6.6875 42.546875 2.75 
Q 36.859375 -1.171875 28.328125 -1.171875 
Q 14.796875 -1.171875 8.296875 7.671875 
Q 3.171875 14.75 3.171875 25.53125 
Q 3.171875 38.421875 9.90625 45.71875 
Q 16.65625 53.03125 26.953125 53.03125 
Q 38.53125 53.03125 45.21875 45.390625 
Q 51.90625 37.75 51.609375 21.96875 
L 17.234375 21.96875 
Q 17.390625 15.875 20.5625 12.46875 
Q 23.734375 9.078125 28.46875 9.078125 
Q 31.6875 9.078125 33.875 10.828125 
Q 36.078125 12.59375 37.203125 16.5 
z
M 37.984375 30.375 
Q 37.84375 36.328125 34.90625 39.421875 
Q 31.984375 42.53125 27.78125 42.53125 
Q 23.296875 42.53125 20.359375 39.265625 
Q 17.4375 35.984375 17.484375 30.375 
z
" id="Arial-BoldMT-101"/>
     <path d="M 9.8125 38.140625 
L 9.8125 51.859375 
L 23.53125 51.859375 
L 23.53125 38.140625 
z
M 9.8125 0 
L 9.8125 13.71875 
L 23.53125 13.71875 
L 23.53125 0 
z
" id="Arial-BoldMT-58"/>
     <path id="Arial-BoldMT-32"/>
     <path d="M 39.359375 0 
L 25.640625 0 
L 25.640625 51.703125 
Q 18.109375 44.671875 7.90625 41.3125 
L 7.90625 53.765625 
Q 13.28125 55.515625 19.578125 60.421875 
Q 25.875 65.328125 28.21875 71.875 
L 39.359375 71.875 
z
" id="Arial-BoldMT-49"/>
     <path d="M 6.84375 13.71875 
L 20.5625 13.71875 
L 20.5625 3.90625 
Q 20.5625 -2.046875 19.53125 -5.484375 
Q 18.5 -8.9375 15.640625 -11.671875 
Q 12.796875 -14.40625 8.40625 -15.96875 
L 5.71875 -10.296875 
Q 9.859375 -8.9375 11.609375 -6.546875 
Q 13.375 -4.15625 13.484375 0 
L 6.84375 0 
z
" id="Arial-BoldMT-44"/>
     <path d="M 16.015625 38.625 
Q 10.6875 40.875 8.265625 44.796875 
Q 5.859375 48.734375 5.859375 53.421875 
Q 5.859375 61.421875 11.453125 66.640625 
Q 17.046875 71.875 27.34375 71.875 
Q 37.546875 71.875 43.1875 66.640625 
Q 48.828125 61.421875 48.828125 53.421875 
Q 48.828125 48.4375 46.234375 44.546875 
Q 43.65625 40.671875 38.96875 38.625 
Q 44.921875 36.234375 48.015625 31.640625 
Q 51.125 27.046875 51.125 21.046875 
Q 51.125 11.140625 44.796875 4.9375 
Q 38.484375 -1.265625 27.984375 -1.265625 
Q 18.21875 -1.265625 11.71875 3.859375 
Q 4.046875 9.90625 4.046875 20.453125 
Q 4.046875 26.265625 6.921875 31.125 
Q 9.8125 35.984375 16.015625 38.625 
z
M 18.84375 52.4375 
Q 18.84375 48.34375 21.15625 46.046875 
Q 23.484375 43.75 27.34375 43.75 
Q 31.25 43.75 33.59375 46.0625 
Q 35.9375 48.390625 35.9375 52.484375 
Q 35.9375 56.34375 33.609375 58.65625 
Q 31.296875 60.984375 27.484375 60.984375 
Q 23.53125 60.984375 21.1875 58.640625 
Q 18.84375 56.296875 18.84375 52.4375 
z
M 17.578125 21.78125 
Q 17.578125 16.109375 20.484375 12.9375 
Q 23.390625 9.765625 27.734375 9.765625 
Q 31.984375 9.765625 34.765625 12.8125 
Q 37.546875 15.875 37.546875 21.625 
Q 37.546875 26.65625 34.71875 29.703125 
Q 31.890625 32.765625 27.546875 32.765625 
Q 22.515625 32.765625 20.046875 29.296875 
Q 17.578125 25.828125 17.578125 21.78125 
z
" id="Arial-BoldMT-56"/>
     <path d="M 27.4375 71.875 
Q 37.84375 71.875 43.703125 64.453125 
Q 50.6875 55.671875 50.6875 35.296875 
Q 50.6875 14.984375 43.65625 6.109375 
Q 37.84375 -1.21875 27.4375 -1.21875 
Q 17 -1.21875 10.59375 6.8125 
Q 4.203125 14.84375 4.203125 35.453125 
Q 4.203125 55.671875 11.234375 64.546875 
Q 17.046875 71.875 27.4375 71.875 
z
M 27.4375 60.5 
Q 24.953125 60.5 23 58.90625 
Q 21.046875 57.328125 19.96875 53.21875 
Q 18.5625 47.90625 18.5625 35.296875 
Q 18.5625 22.703125 19.828125 17.984375 
Q 21.09375 13.28125 23.015625 11.71875 
Q 24.953125 10.15625 27.4375 10.15625 
Q 29.9375 10.15625 31.890625 11.734375 
Q 33.84375 13.328125 34.90625 17.4375 
Q 36.328125 22.703125 36.328125 35.296875 
Q 36.328125 47.90625 35.0625 52.609375 
Q 33.796875 57.328125 31.859375 58.90625 
Q 29.9375 60.5 27.4375 60.5 
z
" id="Arial-BoldMT-48"/>
     <path d="M 30.953125 51.859375 
L 30.953125 40.921875 
L 21.578125 40.921875 
L 21.578125 20.015625 
Q 21.578125 13.671875 21.84375 12.625 
Q 22.125 11.578125 23.078125 10.890625 
Q 24.03125 10.203125 25.390625 10.203125 
Q 27.296875 10.203125 30.90625 11.53125 
L 32.078125 0.875 
Q 27.296875 -1.171875 21.234375 -1.171875 
Q 17.53125 -1.171875 14.546875 0.0625 
Q 11.578125 1.3125 10.1875 3.296875 
Q 8.796875 5.28125 8.25 8.640625 
Q 7.8125 11.03125 7.8125 18.3125 
L 7.8125 40.921875 
L 1.515625 40.921875 
L 1.515625 51.859375 
L 7.8125 51.859375 
L 7.8125 62.15625 
L 21.578125 70.171875 
L 21.578125 51.859375 
z
" id="Arial-BoldMT-116"/>
     <path d="M 20.3125 0 
L 6.59375 0 
L 6.59375 51.859375 
L 19.34375 51.859375 
L 19.34375 44.484375 
Q 22.609375 49.703125 25.21875 51.359375 
Q 27.828125 53.03125 31.15625 53.03125 
Q 35.84375 53.03125 40.1875 50.4375 
L 35.9375 38.484375 
Q 32.46875 40.71875 29.5 40.71875 
Q 26.609375 40.71875 24.609375 39.125 
Q 22.609375 37.546875 21.453125 33.390625 
Q 20.3125 29.25 20.3125 16.015625 
z
" id="Arial-BoldMT-114"/>
     <path d="M 54.34375 0 
L 40.625 0 
L 40.625 26.46875 
Q 40.625 34.859375 39.75 37.328125 
Q 38.875 39.796875 36.890625 41.15625 
Q 34.90625 42.53125 32.125 42.53125 
Q 28.5625 42.53125 25.734375 40.578125 
Q 22.90625 38.625 21.84375 35.390625 
Q 20.796875 32.171875 20.796875 23.484375 
L 20.796875 0 
L 7.078125 0 
L 7.078125 51.859375 
L 19.828125 51.859375 
L 19.828125 44.234375 
Q 26.609375 53.03125 36.921875 53.03125 
Q 41.453125 53.03125 45.203125 51.390625 
Q 48.96875 49.75 50.890625 47.203125 
Q 52.828125 44.671875 53.578125 41.453125 
Q 54.34375 38.234375 54.34375 32.234375 
z
" id="Arial-BoldMT-110"/>
     <path d="M 52.390625 36.53125 
L 38.875 34.078125 
Q 38.1875 38.140625 35.765625 40.1875 
Q 33.34375 42.234375 29.5 42.234375 
Q 24.359375 42.234375 21.3125 38.6875 
Q 18.265625 35.15625 18.265625 26.859375 
Q 18.265625 17.625 21.359375 13.8125 
Q 24.46875 10.015625 29.6875 10.015625 
Q 33.59375 10.015625 36.078125 12.234375 
Q 38.578125 14.453125 39.59375 19.875 
L 53.078125 17.578125 
Q 50.984375 8.296875 45.015625 3.5625 
Q 39.0625 -1.171875 29.046875 -1.171875 
Q 17.671875 -1.171875 10.90625 6 
Q 4.15625 13.1875 4.15625 25.875 
Q 4.15625 38.71875 10.9375 45.875 
Q 17.71875 53.03125 29.296875 53.03125 
Q 38.765625 53.03125 44.359375 48.953125 
Q 49.953125 44.875 52.390625 36.53125 
z
" id="Arial-BoldMT-99"/>
     <path d="M 7.171875 58.890625 
L 7.171875 71.578125 
L 20.90625 71.578125 
L 20.90625 58.890625 
z
M 7.171875 0 
L 7.171875 51.859375 
L 20.90625 51.859375 
L 20.90625 0 
z
" id="Arial-BoldMT-105"/>
     <path d="M 6.59375 0 
L 6.59375 71.578125 
L 20.3125 71.578125 
L 20.3125 45.796875 
Q 26.65625 53.03125 35.359375 53.03125 
Q 44.828125 53.03125 51.03125 46.171875 
Q 57.234375 39.3125 57.234375 26.46875 
Q 57.234375 13.1875 50.90625 6 
Q 44.578125 -1.171875 35.546875 -1.171875 
Q 31.109375 -1.171875 26.78125 1.046875 
Q 22.46875 3.265625 19.34375 7.625 
L 19.34375 0 
z
M 20.21875 27.046875 
Q 20.21875 19 22.75 15.140625 
Q 26.3125 9.671875 32.234375 9.671875 
Q 36.765625 9.671875 39.96875 13.546875 
Q 43.171875 17.4375 43.171875 25.78125 
Q 43.171875 34.671875 39.9375 38.59375 
Q 36.71875 42.53125 31.6875 42.53125 
Q 26.765625 42.53125 23.484375 38.6875 
Q 20.21875 34.859375 20.21875 27.046875 
z
" id="Arial-BoldMT-98"/>
     <path d="M 54.734375 0 
L 42 0 
L 42 7.625 
Q 38.8125 3.171875 34.484375 1 
Q 30.171875 -1.171875 25.78125 -1.171875 
Q 16.84375 -1.171875 10.46875 6.03125 
Q 4.109375 13.234375 4.109375 26.125 
Q 4.109375 39.3125 10.296875 46.171875 
Q 16.5 53.03125 25.984375 53.03125 
Q 34.671875 53.03125 41.015625 45.796875 
L 41.015625 71.578125 
L 54.734375 71.578125 
z
M 18.109375 27.046875 
Q 18.109375 18.75 20.40625 15.046875 
Q 23.734375 9.671875 29.6875 9.671875 
Q 34.421875 9.671875 37.734375 13.6875 
Q 41.0625 17.71875 41.0625 25.734375 
Q 41.0625 34.671875 37.84375 38.59375 
Q 34.625 42.53125 29.59375 42.53125 
Q 24.703125 42.53125 21.40625 38.640625 
Q 18.109375 34.765625 18.109375 27.046875 
z
" id="Arial-BoldMT-100"/>
     <path d="M 41.3125 0 
L 41.3125 7.765625 
Q 38.484375 3.609375 33.859375 1.21875 
Q 29.25 -1.171875 24.125 -1.171875 
Q 18.890625 -1.171875 14.734375 1.125 
Q 10.59375 3.421875 8.734375 7.5625 
Q 6.890625 11.71875 6.890625 19.046875 
L 6.890625 51.859375 
L 20.609375 51.859375 
L 20.609375 28.03125 
Q 20.609375 17.09375 21.359375 14.625 
Q 22.125 12.15625 24.125 10.71875 
Q 26.125 9.28125 29.203125 9.28125 
Q 32.71875 9.28125 35.5 11.203125 
Q 38.28125 13.140625 39.296875 15.984375 
Q 40.328125 18.84375 40.328125 29.984375 
L 40.328125 51.859375 
L 54.046875 51.859375 
L 54.046875 0 
z
" id="Arial-BoldMT-117"/>
    </defs>
    <g transform="translate(135 72)scale(0.4 -0.4)">
     <use xlink:href="#Arial-BoldMT-70"/>
     <use x="61.083984" xlink:href="#Arial-BoldMT-97"/>
     <use x="116.699219" xlink:href="#Arial-BoldMT-108"/>
     <use x="144.482422" xlink:href="#Arial-BoldMT-115"/>
     <use x="200.097656" xlink:href="#Arial-BoldMT-101"/>
     <use x="255.712891" xlink:href="#Arial-BoldMT-58"/>
     <use x="289.013672" xlink:href="#Arial-BoldMT-32"/>
     <use x="316.796875" xlink:href="#Arial-BoldMT-49"/>
     <use x="372.412109" xlink:href="#Arial-BoldMT-44"/>
     <use x="400.195312" xlink:href="#Arial-BoldMT-49"/>
     <use x="455.810547" xlink:href="#Arial-BoldMT-56"/>
     <use x="511.425781" xlink:href="#Arial-BoldMT-48"/>
     <use x="567.041016" xlink:href="#Arial-BoldMT-32"/>
     <use x="594.824219" xlink:href="#Arial-BoldMT-116"/>
     <use x="628.125" xlink:href="#Arial-BoldMT-114"/>
     <use x="667.041016" xlink:href="#Arial-BoldMT-97"/>
     <use x="722.65625" xlink:href="#Arial-BoldMT-110"/>
     <use x="783.740234" xlink:href="#Arial-BoldMT-115"/>
     <use x="839.355469" xlink:href="#Arial-BoldMT-99"/>
     <use x="894.970703" xlink:href="#Arial-BoldMT-114"/>
     <use x="933.886719" xlink:href="#Arial-BoldMT-105"/>
     <use x="961.669922" xlink:href="#Arial-BoldMT-98"/>
     <use x="1022.753906" xlink:href="#Arial-BoldMT-101"/>
     <use x="1078.369141" xlink:href="#Arial-BoldMT-100"/>
     <use x="1139.453125" xlink:href="#Arial-BoldMT-32"/>
     <use x="1167.236328" xlink:href="#Arial-BoldMT-115"/>
     <use x="1222.851562" xlink:href="#Arial-BoldMT-117"/>
     <use x="1283.935547" xlink:href="#Arial-BoldMT-98"/>
     <use x="1345.019531" xlink:href="#Arial-BoldMT-115"/>
    </g>
   </g>
   <g id="legend_1">
    <g id="patch_5">
     <path d="M 628.670313 172.590625 
L 976.1 172.590625 
Q 981.1 172.590625 981.1 167.590625 
L 981.1 96.7 
Q 981.1 91.7 976.1 91.7 
L 628.670313 91.7 
Q 623.670313 91.7 623.670313 96.7 
L 623.670313 167.590625 
Q 623.670313 172.590625 628.670313 172.590625 
z
" style="fill:#ffffff;opacity:0.8;stroke:#cccccc;stroke-linejoin:miter;"/>
    </g>
    <g id="patch_6">
     <path d="M 633.670313 120.696094 
L 683.670313 120.696094 
L 683.670313 103.196094 
L 633.670313 103.196094 
z
" style="fill:#014666;"/>
    </g>
    <g id="text_14">
     <!-- Transcribed Strand -->
     <defs>
      <path d="M 41.109375 46.296875 
Q 39.59375 47.171875 37.8125 47.578125 
Q 36.03125 48 33.890625 48 
Q 26.265625 48 22.1875 43.046875 
Q 18.109375 38.09375 18.109375 28.8125 
L 18.109375 0 
L 9.078125 0 
L 9.078125 54.6875 
L 18.109375 54.6875 
L 18.109375 46.1875 
Q 20.953125 51.171875 25.484375 53.578125 
Q 30.03125 56 36.53125 56 
Q 37.453125 56 38.578125 55.875 
Q 39.703125 55.765625 41.0625 55.515625 
z
" id="DejaVuSans-114"/>
      <path d="M 34.28125 27.484375 
Q 23.390625 27.484375 19.1875 25 
Q 14.984375 22.515625 14.984375 16.5 
Q 14.984375 11.71875 18.140625 8.90625 
Q 21.296875 6.109375 26.703125 6.109375 
Q 34.1875 6.109375 38.703125 11.40625 
Q 43.21875 16.703125 43.21875 25.484375 
L 43.21875 27.484375 
z
M 52.203125 31.203125 
L 52.203125 0 
L 43.21875 0 
L 43.21875 8.296875 
Q 40.140625 3.328125 35.546875 0.953125 
Q 30.953125 -1.421875 24.3125 -1.421875 
Q 15.921875 -1.421875 10.953125 3.296875 
Q 6 8.015625 6 15.921875 
Q 6 25.140625 12.171875 29.828125 
Q 18.359375 34.515625 30.609375 34.515625 
L 43.21875 34.515625 
L 43.21875 35.40625 
Q 43.21875 41.609375 39.140625 45 
Q 35.0625 48.390625 27.6875 48.390625 
Q 23 48.390625 18.546875 47.265625 
Q 14.109375 46.140625 10.015625 43.890625 
L 10.015625 52.203125 
Q 14.9375 54.109375 19.578125 55.046875 
Q 24.21875 56 28.609375 56 
Q 40.484375 56 46.34375 49.84375 
Q 52.203125 43.703125 52.203125 31.203125 
z
" id="DejaVuSans-97"/>
      <path d="M 54.890625 33.015625 
L 54.890625 0 
L 45.90625 0 
L 45.90625 32.71875 
Q 45.90625 40.484375 42.875 44.328125 
Q 39.84375 48.1875 33.796875 48.1875 
Q 26.515625 48.1875 22.3125 43.546875 
Q 18.109375 38.921875 18.109375 30.90625 
L 18.109375 0 
L 9.078125 0 
L 9.078125 54.6875 
L 18.109375 54.6875 
L 18.109375 46.1875 
Q 21.34375 51.125 25.703125 53.5625 
Q 30.078125 56 35.796875 56 
Q 45.21875 56 50.046875 50.171875 
Q 54.890625 44.34375 54.890625 33.015625 
z
" id="DejaVuSans-110"/>
      <path d="M 44.28125 53.078125 
L 44.28125 44.578125 
Q 40.484375 46.53125 36.375 47.5 
Q 32.28125 48.484375 27.875 48.484375 
Q 21.1875 48.484375 17.84375 46.4375 
Q 14.5 44.390625 14.5 40.28125 
Q 14.5 37.15625 16.890625 35.375 
Q 19.28125 33.59375 26.515625 31.984375 
L 29.59375 31.296875 
Q 39.15625 29.25 43.1875 25.515625 
Q 47.21875 21.78125 47.21875 15.09375 
Q 47.21875 7.46875 41.1875 3.015625 
Q 35.15625 -1.421875 24.609375 -1.421875 
Q 20.21875 -1.421875 15.453125 -0.5625 
Q 10.6875 0.296875 5.421875 2 
L 5.421875 11.28125 
Q 10.40625 8.6875 15.234375 7.390625 
Q 20.0625 6.109375 24.8125 6.109375 
Q 31.15625 6.109375 34.5625 8.28125 
Q 37.984375 10.453125 37.984375 14.40625 
Q 37.984375 18.0625 35.515625 20.015625 
Q 33.0625 21.96875 24.703125 23.78125 
L 21.578125 24.515625 
Q 13.234375 26.265625 9.515625 29.90625 
Q 5.8125 33.546875 5.8125 39.890625 
Q 5.8125 47.609375 11.28125 51.796875 
Q 16.75 56 26.8125 56 
Q 31.78125 56 36.171875 55.265625 
Q 40.578125 54.546875 44.28125 53.078125 
z
" id="DejaVuSans-115"/>
      <path d="M 48.78125 52.59375 
L 48.78125 44.1875 
Q 44.96875 46.296875 41.140625 47.34375 
Q 37.3125 48.390625 33.40625 48.390625 
Q 24.65625 48.390625 19.8125 42.84375 
Q 14.984375 37.3125 14.984375 27.296875 
Q 14.984375 17.28125 19.8125 11.734375 
Q 24.65625 6.203125 33.40625 6.203125 
Q 37.3125 6.203125 41.140625 7.25 
Q 44.96875 8.296875 48.78125 10.40625 
L 48.78125 2.09375 
Q 45.015625 0.34375 40.984375 -0.53125 
Q 36.96875 -1.421875 32.421875 -1.421875 
Q 20.0625 -1.421875 12.78125 6.34375 
Q 5.515625 14.109375 5.515625 27.296875 
Q 5.515625 40.671875 12.859375 48.328125 
Q 20.21875 56 33.015625 56 
Q 37.15625 56 41.109375 55.140625 
Q 45.0625 54.296875 48.78125 52.59375 
z
" id="DejaVuSans-99"/>
      <path d="M 9.421875 54.6875 
L 18.40625 54.6875 
L 18.40625 0 
L 9.421875 0 
z
M 9.421875 75.984375 
L 18.40625 75.984375 
L 18.40625 64.59375 
L 9.421875 64.59375 
z
" id="DejaVuSans-105"/>
      <path d="M 48.6875 27.296875 
Q 48.6875 37.203125 44.609375 42.84375 
Q 40.53125 48.484375 33.40625 48.484375 
Q 26.265625 48.484375 22.1875 42.84375 
Q 18.109375 37.203125 18.109375 27.296875 
Q 18.109375 17.390625 22.1875 11.75 
Q 26.265625 6.109375 33.40625 6.109375 
Q 40.53125 6.109375 44.609375 11.75 
Q 48.6875 17.390625 48.6875 27.296875 
z
M 18.109375 46.390625 
Q 20.953125 51.265625 25.265625 53.625 
Q 29.59375 56 35.59375 56 
Q 45.5625 56 51.78125 48.09375 
Q 58.015625 40.1875 58.015625 27.296875 
Q 58.015625 14.40625 51.78125 6.484375 
Q 45.5625 -1.421875 35.59375 -1.421875 
Q 29.59375 -1.421875 25.265625 0.953125 
Q 20.953125 3.328125 18.109375 8.203125 
L 18.109375 0 
L 9.078125 0 
L 9.078125 75.984375 
L 18.109375 75.984375 
z
" id="DejaVuSans-98"/>
      <path d="M 56.203125 29.59375 
L 56.203125 25.203125 
L 14.890625 25.203125 
Q 15.484375 15.921875 20.484375 11.0625 
Q 25.484375 6.203125 34.421875 6.203125 
Q 39.59375 6.203125 44.453125 7.46875 
Q 49.3125 8.734375 54.109375 11.28125 
L 54.109375 2.78125 
Q 49.265625 0.734375 44.1875 -0.34375 
Q 39.109375 -1.421875 33.890625 -1.421875 
Q 20.796875 -1.421875 13.15625 6.1875 
Q 5.515625 13.8125 5.515625 26.8125 
Q 5.515625 40.234375 12.765625 48.109375 
Q 20.015625 56 32.328125 56 
Q 43.359375 56 49.78125 48.890625 
Q 56.203125 41.796875 56.203125 29.59375 
z
M 47.21875 32.234375 
Q 47.125 39.59375 43.09375 43.984375 
Q 39.0625 48.390625 32.421875 48.390625 
Q 24.90625 48.390625 20.390625 44.140625 
Q 15.875 39.890625 15.1875 32.171875 
z
" id="DejaVuSans-101"/>
      <path d="M 45.40625 46.390625 
L 45.40625 75.984375 
L 54.390625 75.984375 
L 54.390625 0 
L 45.40625 0 
L 45.40625 8.203125 
Q 42.578125 3.328125 38.25 0.953125 
Q 33.9375 -1.421875 27.875 -1.421875 
Q 17.96875 -1.421875 11.734375 6.484375 
Q 5.515625 14.40625 5.515625 27.296875 
Q 5.515625 40.1875 11.734375 48.09375 
Q 17.96875 56 27.875 56 
Q 33.9375 56 38.25 53.625 
Q 42.578125 51.265625 45.40625 46.390625 
z
M 14.796875 27.296875 
Q 14.796875 17.390625 18.875 11.75 
Q 22.953125 6.109375 30.078125 6.109375 
Q 37.203125 6.109375 41.296875 11.75 
Q 45.40625 17.390625 45.40625 27.296875 
Q 45.40625 37.203125 41.296875 42.84375 
Q 37.203125 48.484375 30.078125 48.484375 
Q 22.953125 48.484375 18.875 42.84375 
Q 14.796875 37.203125 14.796875 27.296875 
z
" id="DejaVuSans-100"/>
      <path id="DejaVuSans-32"/>
      <path d="M 53.515625 70.515625 
L 53.515625 60.890625 
Q 47.90625 63.578125 42.921875 64.890625 
Q 37.9375 66.21875 33.296875 66.21875 
Q 25.25 66.21875 20.875 63.09375 
Q 16.5 59.96875 16.5 54.203125 
Q 16.5 49.359375 19.40625 46.890625 
Q 22.3125 44.4375 30.421875 42.921875 
L 36.375 41.703125 
Q 47.40625 39.59375 52.65625 34.296875 
Q 57.90625 29 57.90625 20.125 
Q 57.90625 9.515625 50.796875 4.046875 
Q 43.703125 -1.421875 29.984375 -1.421875 
Q 24.8125 -1.421875 18.96875 -0.25 
Q 13.140625 0.921875 6.890625 3.21875 
L 6.890625 13.375 
Q 12.890625 10.015625 18.65625 8.296875 
Q 24.421875 6.59375 29.984375 6.59375 
Q 38.421875 6.59375 43.015625 9.90625 
Q 47.609375 13.234375 47.609375 19.390625 
Q 47.609375 24.75 44.3125 27.78125 
Q 41.015625 30.8125 33.5 32.328125 
L 27.484375 33.5 
Q 16.453125 35.6875 11.515625 40.375 
Q 6.59375 45.0625 6.59375 53.421875 
Q 6.59375 63.09375 13.40625 68.65625 
Q 20.21875 74.21875 32.171875 74.21875 
Q 37.3125 74.21875 42.625 73.28125 
Q 47.953125 72.359375 53.515625 70.515625 
z
" id="DejaVuSans-83"/>
      <path d="M 18.3125 70.21875 
L 18.3125 54.6875 
L 36.8125 54.6875 
L 36.8125 47.703125 
L 18.3125 47.703125 
L 18.3125 18.015625 
Q 18.3125 11.328125 20.140625 9.421875 
Q 21.96875 7.515625 27.59375 7.515625 
L 36.8125 7.515625 
L 36.8125 0 
L 27.59375 0 
Q 17.1875 0 13.234375 3.875 
Q 9.28125 7.765625 9.28125 18.015625 
L 9.28125 47.703125 
L 2.6875 47.703125 
L 2.6875 54.6875 
L 9.28125 54.6875 
L 9.28125 70.21875 
z
" id="DejaVuSans-116"/>
     </defs>
     <g transform="translate(703.670313 120.696094)scale(0.25 -0.25)">
      <use xlink:href="#DejaVuSans-84"/>
      <use x="46.333984" xlink:href="#DejaVuSans-114"/>
      <use x="87.447266" xlink:href="#DejaVuSans-97"/>
      <use x="148.726562" xlink:href="#DejaVuSans-110"/>
      <use x="212.105469" xlink:href="#DejaVuSans-115"/>
      <use x="264.205078" xlink:href="#DejaVuSans-99"/>
      <use x="319.185547" xlink:href="#DejaVuSans-114"/>
      <use x="360.298828" xlink:href="#DejaVuSans-105"/>
      <use x="388.082031" xlink:href="#DejaVuSans-98"/>
      <use x="451.558594" xlink:href="#DejaVuSans-101"/>
      <use x="513.082031" xlink:href="#DejaVuSans-100"/>
      <use x="576.558594" xlink:href="#DejaVuSans-32"/>
      <use x="608.345703" xlink:href="#DejaVuSans-83"/>
      <use x="671.822266" xlink:href="#DejaVuSans-116"/>
      <use x="711.03125" xlink:href="#DejaVuSans-114"/>
      <use x="752.144531" xlink:href="#DejaVuSans-97"/>
      <use x="813.423828" xlink:href="#DejaVuSans-110"/>
      <use x="876.802734" xlink:href="#DejaVuSans-100"/>
     </g>
    </g>
    <g id="patch_7">
     <path d="M 633.670313 157.391406 
L 683.670313 157.391406 
L 683.670313 139.891406 
L 633.670313 139.891406 
z
" style="fill:#e32926;"/>
    </g>
    <g id="text_15">
     <!-- Untranscribed Strand -->
     <defs>
      <path d="M 8.6875 72.90625 
L 18.609375 72.90625 
L 18.609375 28.609375 
Q 18.609375 16.890625 22.84375 11.734375 
Q 27.09375 6.59375 36.625 6.59375 
Q 46.09375 6.59375 50.34375 11.734375 
Q 54.59375 16.890625 54.59375 28.609375 
L 54.59375 72.90625 
L 64.5 72.90625 
L 64.5 27.390625 
Q 64.5 13.140625 57.4375 5.859375 
Q 50.390625 -1.421875 36.625 -1.421875 
Q 22.796875 -1.421875 15.734375 5.859375 
Q 8.6875 13.140625 8.6875 27.390625 
z
" id="DejaVuSans-85"/>
     </defs>
     <g transform="translate(703.670313 157.391406)scale(0.25 -0.25)">
      <use xlink:href="#DejaVuSans-85"/>
      <use x="73.193359" xlink:href="#DejaVuSans-110"/>
      <use x="136.572266" xlink:href="#DejaVuSans-116"/>
      <use x="175.78125" xlink:href="#DejaVuSans-114"/>
      <use x="216.894531" xlink:href="#DejaVuSans-97"/>
      <use x="278.173828" xlink:href="#DejaVuSans-110"/>
      <use x="341.552734" xlink:href="#DejaVuSans-115"/>
      <use x="393.652344" xlink:href="#DejaVuSans-99"/>
      <use x="448.632812" xlink:href="#DejaVuSans-114"/>
      <use x="489.746094" xlink:href="#DejaVuSans-105"/>
      <use x="517.529297" xlink:href="#DejaVuSans-98"/>
      <use x="581.005859" xlink:href="#DejaVuSans-101"/>
      <use x="642.529297" xlink:href="#DejaVuSans-100"/>
      <use x="706.005859" xlink:href="#DejaVuSans-32"/>
      <use x="737.792969" xlink:href="#DejaVuSans-83"/>
      <use x="801.269531" xlink:href="#DejaVuSans-116"/>
      <use x="840.478516" xlink:href="#DejaVuSans-114"/>
      <use x="881.591797" xlink:href="#DejaVuSans-97"/>
      <use x="942.871094" xlink:href="#DejaVuSans-110"/>
      <use x="1006.25" xlink:href="#DejaVuSans-100"/>
     </g>
    </g>
   </g>
   <g id="patch_8">
    <path clip-path="url(#pf132585f78)" d="M 129.6 131.250473 
L 453.6 131.250473 
L 453.6 96.550158 
L 129.6 96.550158 
z
" style="fill:#014666;"/>
   </g>
   <g id="patch_9">
    <path clip-path="url(#pf132585f78)" d="M 129.6 165.950789 
L 410.4 165.950789 
L 410.4 131.250473 
L 129.6 131.250473 
z
" style="fill:#e32926;"/>
   </g>
   <g id="patch_10">
    <path clip-path="url(#pf132585f78)" d="M 129.6 223.66898 
L 385.2 223.66898 
L 385.2 188.968665 
L 129.6 188.968665 
z
" style="fill:#014666;"/>
   </g>
   <g id="patch_11">
    <path clip-path="url(#pf132585f78)" d="M 129.6 258.369295 
L 363.6 258.369295 
L 363.6 223.66898 
L 129.6 223.66898 
z
" style="fill:#e32926;"/>
   </g>
   <g id="patch_12">
    <path clip-path="url(#pf132585f78)" d="M 129.6 316.087487 
L 914.4 316.087487 
L 914.4 281.387171 
L 129.6 281.387171 
z
" style="fill:#014666;"/>
   </g>
   <g id="patch_13">
    <path clip-path="url(#pf132585f78)" d="M 129.6 350.787802 
L 846 350.787802 
L 846 316.087487 
L 129.6 316.087487 
z
" style="fill:#e32926;"/>
   </g>
   <g id="patch_14">
    <path clip-path="url(#pf132585f78)" d="M 129.6 408.505994 
L 270 408.505994 
L 270 373.805678 
L 129.6 373.805678 
z
" style="fill:#014666;"/>
   </g>
   <g id="patch_15">
    <path clip-path="url(#pf132585f78)" d="M 129.6 443.206309 
L 342 443.206309 
L 342 408.505994 
L 129.6 408.505994 
z
" style="fill:#e32926;"/>
   </g>
   <g id="patch_16">
    <path clip-path="url(#pf132585f78)" d="M 129.6 500.924501 
L 608.4 500.924501 
L 608.4 466.224185 
L 129.6 466.224185 
z
" style="fill:#014666;"/>
   </g>
   <g id="patch_17">
    <path clip-path="url(#pf132585f78)" d="M 129.6 535.624816 
L 597.6 535.624816 
L 597.6 500.924501 
L 129.6 500.924501 
z
" style="fill:#e32926;"/>
   </g>
   <g id="patch_18">
    <path clip-path="url(#pf132585f78)" d="M 129.6 593.343007 
L 280.8 593.343007 
L 280.8 558.642692 
L 129.6 558.642692 
z
" style="fill:#014666;"/>
   </g>
   <g id="patch_19">
    <path clip-path="url(#pf132585f78)" d="M 129.6 628.043323 
L 331.2 628.043323 
L 331.2 593.343007 
L 129.6 593.343007 
z
" style="fill:#e32926;"/>
   </g>
  </g>
 </g>
 <defs>
  <clipPath id="pf132585f78">
   <rect height="554.4" width="864" x="129.6" y="79.2"/>
  </clipPath>
 </defs>
</svg>
